<?xml version="1.0" encoding="utf-8"?>
<!-- Generator: Adobe Illustrator 26.5.0, SVG Export Plug-In . SVG Version: 6.00 Build 0)  -->
<svg version="1.1" id="Слой_1" xmlns="http://www.w3.org/2000/svg" xmlns:xlink="http://www.w3.org/1999/xlink" x="0px" y="0px"
	 viewBox="0 0 38 30" style="enable-background:new 0 0 38 30;" xml:space="preserve">
<style type="text/css">
	.st0{fill:#B3B3B3;}
	.st1{fill:#929392;}
</style>
<path class="st0" d="M17.9,0L3.6,10.4v8.6l14.2,10.4C17.8,7.3,17.9,18.2,17.9,0z"/>
<path class="st0" d="M0,21.9h7.5V7.6H0V21.9z"/>
<path class="st0" d="M27,29.1c-0.3,0-0.7-0.1-1-0.3c-0.3-0.2-0.5-0.5-0.6-0.8c-0.1-0.2-0.1-0.4-0.1-0.7c0-0.2,0-0.5,0.1-0.7
	c0.1-0.2,0.2-0.4,0.4-0.6c0.2-0.2,0.4-0.3,0.6-0.4c1.4-0.6,2.7-1.5,3.8-2.6c2.2-2.2,3.5-5.3,3.5-8.4c0-3.2-1.3-6.2-3.5-8.5
	c-1.1-1.1-2.4-2-3.8-2.6c-0.4-0.2-0.8-0.5-0.9-1c-0.2-0.4-0.2-0.9,0-1.3c0.1-0.2,0.2-0.4,0.4-0.6c0.2-0.2,0.4-0.3,0.6-0.4
	c0.2-0.1,0.4-0.1,0.7-0.1c0.2,0,0.5,0.1,0.7,0.1c3.7,1.6,6.6,4.5,8.2,8.2c0.8,1.9,1.2,3.9,1.2,6c0,2.1-0.4,4.1-1.2,6
	c-0.8,1.8-1.9,3.5-3.3,4.9c-1.4,1.4-3.1,2.6-4.9,3.4C27.4,29.1,27.2,29.1,27,29.1z"/>
<path class="st0" d="M23.7,22.1c-0.4,0-0.7-0.1-1-0.4s-0.5-0.6-0.6-0.9c-0.1-0.4,0-0.8,0.2-1.1c0.2-0.3,0.5-0.6,0.8-0.7
	c0.8-0.3,1.5-0.9,2-1.7c0.5-0.7,0.7-1.6,0.7-2.5c0-0.6-0.1-1.2-0.4-1.8c-0.2-0.5-0.6-1-1-1.4c-0.4-0.4-0.9-0.8-1.4-1
	c-0.4-0.2-0.6-0.5-0.8-0.9c-0.1-0.4-0.1-0.8,0-1.2c0.2-0.4,0.4-0.7,0.8-0.8c0.4-0.2,0.8-0.2,1.2-0.1c1.2,0.5,2.2,1.3,3,2.3
	c0.8,1,1.4,2.2,1.6,3.4c0.2,1.3,0.2,2.5-0.2,3.8c-0.4,1.2-1,2.3-1.9,3.2c-0.7,0.7-1.5,1.3-2.5,1.7C24.1,22,23.9,22.1,23.7,22.1z"/>
<g id="Слой_2">
	<polyline class="st1" points="0,0 0,3.4 34.6,30 38,30 38,26.5 3.1,0 	"/>
</g>
</svg>
